<svg xmlns="http://www.w3.org/2000/svg" width="500" height="500" viewBox="0 0 500 500">
  <defs>
    <style>
      .cls-1 {
        fill-rule: evenodd;
      }
    </style>
  </defs>
  <path class="cls-1" d="M344.878,141.711c184.728,59.008,173.28,23.782,58.523,180.072,0.959,193.846,30.907,172.072-153.235,111.272C66.022,493.855,95.979,515.629,96.938,321.783-17.827,165.493-29.274,200.719,155.461,141.711c113.222-157.4,76.195-157.366,189.417,0h0ZM310.122,196.7c112.783,36.015,105.8,14.529,35.745,109.908,0.582,118.374,18.866,105.066-93.549,67.939-112.423,37.127-94.139,50.435-93.557-67.939C88.7,211.23,81.714,232.716,194.5,196.7c69.126-96.1,46.517-96.061,115.625,0h0Z"/>
</svg>
